# xmcd CD database file
#
# Track frame offsets:
#	150
#	13753
#	25918
#	40352
#	52119
#	68398
#	77634
#	89797
#	100342
#	111804
#	125846
#	145785
#	158338
#	169841
#
# Disc length: 2422 seconds
#
# Revision: 0
# Processed by: cddbd v1.5.1PL2 Copyright (c) Steve Scherf et al.
# Submitted via: CDex 1.51
#
DISCID=b809740e
DTITLE=Jacques Houdek - Kad si sretan
DYEAR=2005
DGENRE=Djecje
TTITLE0=Kad si sretan
TTITLE1=Cemu sluze roditelji (feat Gabi i Arsen)
TTITLE2=Kauboj i indijanac
TTITLE3=Kad Anine noge gaze
TTITLE4=Zeko i potocic
TTITLE5=Tata kupi mi auto (feat Mala Danijela)
TTITLE6=Jedan obican zir (feat Dino Jelusic)
TTITLE7=Nije lako bubamarcu
TTITLE8=Majka
TTITLE9=Kad se male ruke sloze
TTITLE10=Svaki dan se to dogadja
TTITLE11=Novogodisnja pjesma
TTITLE12=Zvoncici
TTITLE13=Veseli vokali
EXTD=YEAR: 2005
EXTT0=
EXTT1=
EXTT2=
EXTT3=
EXTT4=
EXTT5=
EXTT6=
EXTT7=
EXTT8=
EXTT9=
EXTT10=
EXTT11=
EXTT12=
EXTT13=
PLAYORDER=
